<svg width="26" height="25" viewBox="0 0 26 25" fill="none" xmlns="http://www.w3.org/2000/svg">
<path d="M7 1.17041L7.51885 0.315544L7 0.000635982L6.48115 0.315544L7 1.17041ZM13 4.81203L12.4812 5.66689L13 5.9818L13.5188 5.66689L13 4.81203ZM1 4.81203L0.481151 3.95716L0 4.24919V4.81203H1ZM1 12.6155H0V13.077L0.351203 13.3765L1 12.6155ZM13 22.8467L12.3512 23.6077L13 24.1608L13.6488 23.6077L13 22.8467ZM25 12.6155L25.6488 13.3765L26 13.077V12.6155H25ZM25 4.81203H26V4.24919L25.5188 3.95716L25 4.81203ZM19 1.17041L19.5189 0.315544L19 0.000635982L18.4812 0.315544L19 1.17041ZM6.48115 2.02528L12.4812 5.66689L13.5188 3.95716L7.51885 0.315544L6.48115 2.02528ZM1.51885 5.66689L7.51885 2.02528L6.48115 0.315544L0.481151 3.95716L1.51885 5.66689ZM2 12.6155V4.81203H0V12.6155H2ZM13.6488 22.0857L1.6488 11.8545L0.351203 13.3765L12.3512 23.6077L13.6488 22.0857ZM13.6488 23.6077L25.6488 13.3765L24.3512 11.8545L12.3512 22.0857L13.6488 23.6077ZM26 12.6155V4.81203H24V12.6155H26ZM25.5188 3.95716L19.5189 0.315544L18.4812 2.02528L24.4812 5.66689L25.5188 3.95716ZM18.4812 0.315544L12.4812 3.95716L13.5188 5.66689L19.5189 2.02528L18.4812 0.315544Z" fill="white"/>
</svg>
